<?xml version="1.0" encoding="UTF-8" standalone="no"?>
<!-- Created with Inkscape (http://www.inkscape.org/) -->

<svg
   xmlns:dc="http://purl.org/dc/elements/1.1/"
   xmlns:cc="http://creativecommons.org/ns#"
   xmlns:rdf="http://www.w3.org/1999/02/22-rdf-syntax-ns#"
   xmlns:svg="http://www.w3.org/2000/svg"
   xmlns="http://www.w3.org/2000/svg"
   xmlns:sodipodi="http://sodipodi.sourceforge.net/DTD/sodipodi-0.dtd"
   xmlns:inkscape="http://www.inkscape.org/namespaces/inkscape"
   width="744.09448819"
   height="1052.3622047"
   id="svg2"
   version="1.1"
   inkscape:version="0.48.0 r9654"
   sodipodi:docname="New document 1">
  <defs
     id="defs4" />
  <sodipodi:namedview
     id="base"
     pagecolor="#ffffff"
     bordercolor="#666666"
     borderopacity="1.0"
     inkscape:pageopacity="0.0"
     inkscape:pageshadow="2"
     inkscape:zoom="2.8"
     inkscape:cx="406.22094"
     inkscape:cy="735.48873"
     inkscape:document-units="px"
     inkscape:current-layer="layer1"
     showgrid="false"
     inkscape:window-width="1920"
     inkscape:window-height="1147"
     inkscape:window-x="0"
     inkscape:window-y="25"
     inkscape:window-maximized="1" />
  <metadata
     id="metadata7">
    <rdf:RDF>
      <cc:Work
         rdf:about="">
        <dc:format>image/svg+xml</dc:format>
        <dc:type
           rdf:resource="http://purl.org/dc/dcmitype/StillImage" />
        <dc:title></dc:title>
      </cc:Work>
    </rdf:RDF>
  </metadata>
  <g
     inkscape:label="Layer 1"
     inkscape:groupmode="layer"
     id="layer1">
    <path
       style="fill:none;stroke:#ff0000;stroke-width:20;stroke-linecap:round;stroke-linejoin:round;stroke-miterlimit:4;stroke-opacity:1;stroke-dasharray:none"
       d="m 238.396,813.96618 0,-316.17775 c 0,0 1.01016,-79.29697 79.29698,-79.29697 78.28682,0 159.09902,0 159.09902,0 l 70.45814,-70.45814 0,-172.48355"
       id="path2985"
       inkscape:connector-curvature="0" />
    <rect
       style="fill:#00ff00;fill-opacity:1;stroke:none"
       id="rect3755"
       width="7.5761442"
       height="19.445436"
       x="214.15233"
       y="793.13177" />
    <rect
       y="793.13177"
       x="234.15233"
       height="19.445436"
       width="7.5761442"
       id="rect3777"
       style="fill:#00ff00;fill-opacity:1;stroke:none" />
    <rect
       style="fill:#00ff00;fill-opacity:1;stroke:none"
       id="rect3779"
       width="7.5761442"
       height="19.445436"
       x="254.15233"
       y="793.13177" />
    <rect
       y="794.24048"
       x="5.2945356"
       height="19.445436"
       width="7.5761442"
       id="rect3796"
       style="fill:#00ff00;fill-opacity:1;stroke:none"
       transform="matrix(0.96592583,-0.25881905,0.25881905,0.96592583,0,0)" />
    <rect
       style="fill:#00ff00;fill-opacity:1;stroke:none"
       id="rect3798"
       width="7.5761442"
       height="19.445436"
       x="25.294537"
       y="794.24048"
       transform="matrix(0.96592583,-0.25881905,0.25881905,0.96592583,0,0)" />
    <rect
       y="794.24048"
       x="45.294537"
       height="19.445436"
       width="7.5761442"
       id="rect3800"
       style="fill:#00ff00;fill-opacity:1;stroke:none"
       transform="matrix(0.96592583,-0.25881905,0.25881905,0.96592583,0,0)" />
    <rect
       style="fill:#00ff00;fill-opacity:1;stroke:none"
       id="rect3804"
       width="7.5761442"
       height="19.445436"
       x="5.710638"
       y="769.50537"
       transform="matrix(0.96592583,-0.25881905,0.25881905,0.96592583,0,0)" />
    <rect
       y="769.50537"
       x="25.710638"
       height="19.445436"
       width="7.5761442"
       id="rect3806"
       style="fill:#00ff00;fill-opacity:1;stroke:none"
       transform="matrix(0.96592583,-0.25881905,0.25881905,0.96592583,0,0)" />
    <rect
       style="fill:#00ff00;fill-opacity:1;stroke:none"
       id="rect3808"
       width="7.5761442"
       height="19.445436"
       x="45.710636"
       y="769.50537"
       transform="matrix(0.96592583,-0.25881905,0.25881905,0.96592583,0,0)" />
    <rect
       y="706.33356"
       x="203.48036"
       height="19.445436"
       width="7.5761442"
       id="rect3828"
       style="fill:#00ff00;fill-opacity:1;stroke:none" />
    <rect
       style="fill:#00ff00;fill-opacity:1;stroke:none"
       id="rect3830"
       width="7.5761442"
       height="19.445436"
       x="223.48036"
       y="706.33356" />
    <rect
       y="706.33356"
       x="243.48036"
       height="19.445436"
       width="7.5761442"
       id="rect3832"
       style="fill:#00ff00;fill-opacity:1;stroke:none" />
    <rect
       style="fill:#00ff00;fill-opacity:1;stroke:none"
       id="rect3838"
       width="7.5761442"
       height="19.445436"
       x="377.2189"
       y="596.56122"
       transform="matrix(0.96592583,0.25881905,-0.25881905,0.96592583,0,0)" />
    <rect
       y="596.56122"
       x="397.2189"
       height="19.445436"
       width="7.5761442"
       id="rect3840"
       style="fill:#00ff00;fill-opacity:1;stroke:none"
       transform="matrix(0.96592583,0.25881905,-0.25881905,0.96592583,0,0)" />
    <rect
       style="fill:#00ff00;fill-opacity:1;stroke:none"
       id="rect3842"
       width="7.5761442"
       height="19.445436"
       x="417.2189"
       y="596.56122"
       transform="matrix(0.96592583,0.25881905,-0.25881905,0.96592583,0,0)" />
    <rect
       y="572.16724"
       x="378.00308"
       height="19.445436"
       width="7.5761442"
       id="rect3848"
       style="fill:#00ff00;fill-opacity:1;stroke:none"
       transform="matrix(0.96592583,0.25881905,-0.25881905,0.96592583,0,0)" />
    <rect
       style="fill:#00ff00;fill-opacity:1;stroke:none"
       id="rect3850"
       width="7.5761442"
       height="19.445436"
       x="398.00308"
       y="572.16724"
       transform="matrix(0.96592583,0.25881905,-0.25881905,0.96592583,0,0)" />
    <rect
       y="572.16724"
       x="418.00308"
       height="19.445436"
       width="7.5761442"
       id="rect3852"
       style="fill:#00ff00;fill-opacity:1;stroke:none"
       transform="matrix(0.96592583,0.25881905,-0.25881905,0.96592583,0,0)" />
    <rect
       style="fill:#00ff00;fill-opacity:1;stroke:none"
       id="rect3858"
       width="7.5761442"
       height="19.445436"
       x="216.61235"
       y="627.28912" />
    <rect
       y="627.28912"
       x="236.61235"
       height="19.445436"
       width="7.5761442"
       id="rect3860"
       style="fill:#00ff00;fill-opacity:1;stroke:none" />
    <rect
       style="fill:#00ff00;fill-opacity:1;stroke:none"
       id="rect3862"
       width="7.5761442"
       height="19.445436"
       x="256.61234"
       y="627.28912" />
    <rect
       y="506.07083"
       x="215.09712"
       height="19.445436"
       width="7.5761442"
       id="rect3868"
       style="fill:#00ff00;fill-opacity:1;stroke:none" />
    <rect
       style="fill:#00ff00;fill-opacity:1;stroke:none"
       id="rect3870"
       width="7.5761442"
       height="19.445436"
       x="235.09712"
       y="506.07083" />
    <rect
       y="506.07083"
       x="255.09712"
       height="19.445436"
       width="7.5761442"
       id="rect3872"
       style="fill:#00ff00;fill-opacity:1;stroke:none" />
    <rect
       style="fill:#00ff00;fill-opacity:1;stroke:none"
       id="rect3888"
       width="7.5761442"
       height="19.445436"
       x="215.09712"
       y="454.07083" />
    <rect
       y="454.07083"
       x="235.09712"
       height="19.445436"
       width="7.5761442"
       id="rect3890"
       style="fill:#00ff00;fill-opacity:1;stroke:none" />
    <rect
       style="fill:#00ff00;fill-opacity:1;stroke:none"
       id="rect3892"
       width="7.5761442"
       height="19.445436"
       x="255.09712"
       y="454.07083" />
    <rect
       y="362.14865"
       x="325.47845"
       height="19.445436"
       width="7.5761442"
       id="rect3898"
       style="fill:#00ff00;fill-opacity:1;stroke:none"
       transform="matrix(0.96592583,0.25881905,-0.25881905,0.96592583,0,0)" />
    <rect
       style="fill:#00ff00;fill-opacity:1;stroke:none"
       id="rect3900"
       width="7.5761442"
       height="19.445436"
       x="345.47845"
       y="362.14865"
       transform="matrix(0.96592583,0.25881905,-0.25881905,0.96592583,0,0)" />
    <rect
       y="362.14865"
       x="365.47845"
       height="19.445436"
       width="7.5761442"
       id="rect3902"
       style="fill:#00ff00;fill-opacity:1;stroke:none"
       transform="matrix(0.96592583,0.25881905,-0.25881905,0.96592583,0,0)" />
    <rect
       style="fill:#00ff00;fill-opacity:1;stroke:none"
       id="rect3908"
       width="7.5761442"
       height="19.445436"
       x="408.10403"
       y="243.35777"
       transform="matrix(0.8660254,0.5,-0.5,0.8660254,0,0)" />
    <rect
       y="243.35777"
       x="428.10403"
       height="19.445436"
       width="7.5761442"
       id="rect3910"
       style="fill:#00ff00;fill-opacity:1;stroke:none"
       transform="matrix(0.8660254,0.5,-0.5,0.8660254,0,0)" />
    <rect
       style="fill:#00ff00;fill-opacity:1;stroke:none"
       id="rect3912"
       width="7.5761442"
       height="19.445436"
       x="448.10403"
       y="243.35777"
       transform="matrix(0.8660254,0.5,-0.5,0.8660254,0,0)" />
    <rect
       y="116.05498"
       x="458.0423"
       height="19.445436"
       width="7.5761442"
       id="rect3918"
       style="fill:#00ff00;fill-opacity:1;stroke:none"
       transform="matrix(0.70710678,0.70710678,-0.70710678,0.70710678,0,0)" />
    <rect
       style="fill:#00ff00;fill-opacity:1;stroke:none"
       id="rect3920"
       width="7.5761442"
       height="19.445436"
       x="478.0423"
       y="116.05498"
       transform="matrix(0.70710678,0.70710678,-0.70710678,0.70710678,0,0)" />
    <rect
       y="116.05498"
       x="498.0423"
       height="19.445436"
       width="7.5761442"
       id="rect3922"
       style="fill:#00ff00;fill-opacity:1;stroke:none"
       transform="matrix(0.70710678,0.70710678,-0.70710678,0.70710678,0,0)" />
    <rect
       style="fill:#00ff00;fill-opacity:1;stroke:none"
       id="rect3928"
       width="7.5761442"
       height="19.445436"
       x="472.37897"
       y="-26.086823"
       transform="matrix(0.5,0.86602541,-0.86602541,0.5,0,0)" />
    <rect
       y="-26.086823"
       x="492.37897"
       height="19.445436"
       width="7.5761442"
       id="rect3930"
       style="fill:#00ff00;fill-opacity:1;stroke:none"
       transform="matrix(0.5,0.86602541,-0.86602541,0.5,0,0)" />
    <rect
       style="fill:#00ff00;fill-opacity:1;stroke:none"
       id="rect3932"
       width="7.5761442"
       height="19.445436"
       x="512.37897"
       y="-26.086823"
       transform="matrix(0.5,0.86602541,-0.86602541,0.5,0,0)" />
    <rect
       y="-164.49805"
       x="449.93988"
       height="19.445436"
       width="7.5761442"
       id="rect3938"
       style="fill:#00ff00;fill-opacity:1;stroke:none"
       transform="matrix(0.25881905,0.96592583,-0.96592583,0.25881905,0,0)" />
    <rect
       style="fill:#00ff00;fill-opacity:1;stroke:none"
       id="rect3940"
       width="7.5761442"
       height="19.445436"
       x="469.93988"
       y="-164.49805"
       transform="matrix(0.25881905,0.96592583,-0.96592583,0.25881905,0,0)" />
    <rect
       y="-164.49805"
       x="489.93988"
       height="19.445436"
       width="7.5761442"
       id="rect3942"
       style="fill:#00ff00;fill-opacity:1;stroke:none"
       transform="matrix(0.25881905,0.96592583,-0.96592583,0.25881905,0,0)" />
    <rect
       style="fill:#00ff00;fill-opacity:1;stroke:none"
       id="rect3948"
       width="7.5761442"
       height="19.445436"
       x="392.65454"
       y="-293.55984"
       transform="matrix(0,1,-1,0,0,0)" />
    <rect
       y="-293.55984"
       x="412.65454"
       height="19.445436"
       width="7.5761442"
       id="rect3950"
       style="fill:#00ff00;fill-opacity:1;stroke:none"
       transform="matrix(0,1,-1,0,0,0)" />
    <rect
       style="fill:#00ff00;fill-opacity:1;stroke:none"
       id="rect3952"
       width="7.5761442"
       height="19.445436"
       x="432.65454"
       y="-293.55984"
       transform="matrix(0,1,-1,0,0,0)" />
    <rect
       y="-311.86884"
       x="392.52829"
       height="19.445436"
       width="7.5761442"
       id="rect3958"
       style="fill:#00ff00;fill-opacity:1;stroke:none"
       transform="matrix(0,1,-1,0,0,0)" />
    <rect
       style="fill:#00ff00;fill-opacity:1;stroke:none"
       id="rect3960"
       width="7.5761442"
       height="19.445436"
       x="412.52829"
       y="-311.86884"
       transform="matrix(0,1,-1,0,0,0)" />
    <rect
       y="-311.86884"
       x="432.52829"
       height="19.445436"
       width="7.5761442"
       id="rect3962"
       style="fill:#00ff00;fill-opacity:1;stroke:none"
       transform="matrix(0,1,-1,0,0,0)" />
    <rect
       style="fill:#00ff00;fill-opacity:1;stroke:none"
       id="rect3968"
       width="7.5761442"
       height="19.445436"
       x="392.40201"
       y="-330.55664"
       transform="matrix(0,1,-1,0,0,0)" />
    <rect
       y="-330.55664"
       x="412.40201"
       height="19.445436"
       width="7.5761442"
       id="rect3970"
       style="fill:#00ff00;fill-opacity:1;stroke:none"
       transform="matrix(0,1,-1,0,0,0)" />
    <rect
       style="fill:#00ff00;fill-opacity:1;stroke:none"
       id="rect3972"
       width="7.5761442"
       height="19.445436"
       x="432.40201"
       y="-330.55664"
       transform="matrix(0,1,-1,0,0,0)" />
    <rect
       y="-346.55664"
       x="392.40201"
       height="19.445436"
       width="7.5761442"
       id="rect3978"
       style="fill:#00ff00;fill-opacity:1;stroke:none"
       transform="matrix(0,1,-1,0,0,0)" />
    <rect
       style="fill:#00ff00;fill-opacity:1;stroke:none"
       id="rect3980"
       width="7.5761442"
       height="19.445436"
       x="412.40201"
       y="-346.55664"
       transform="matrix(0,1,-1,0,0,0)" />
    <rect
       y="-346.55664"
       x="432.40201"
       height="19.445436"
       width="7.5761442"
       id="rect3982"
       style="fill:#00ff00;fill-opacity:1;stroke:none"
       transform="matrix(0,1,-1,0,0,0)" />
    <rect
       style="fill:#00ff00;fill-opacity:1;stroke:none"
       id="rect3988"
       width="7.5761442"
       height="19.445436"
       x="392.40201"
       y="-466.55664"
       transform="matrix(0,1,-1,0,0,0)" />
    <rect
       y="-466.55664"
       x="412.40201"
       height="19.445436"
       width="7.5761442"
       id="rect3990"
       style="fill:#00ff00;fill-opacity:1;stroke:none"
       transform="matrix(0,1,-1,0,0,0)" />
    <rect
       style="fill:#00ff00;fill-opacity:1;stroke:none"
       id="rect3992"
       width="7.5761442"
       height="19.445436"
       x="432.40201"
       y="-466.55664"
       transform="matrix(0,1,-1,0,0,0)" />
    <rect
       y="-490.55664"
       x="392.40201"
       height="19.445436"
       width="7.5761442"
       id="rect3998"
       style="fill:#00ff00;fill-opacity:1;stroke:none"
       transform="matrix(0,1,-1,0,0,0)" />
    <rect
       style="fill:#00ff00;fill-opacity:1;stroke:none"
       id="rect4000"
       width="7.5761442"
       height="19.445436"
       x="412.40201"
       y="-490.55664"
       transform="matrix(0,1,-1,0,0,0)" />
    <rect
       y="-490.55664"
       x="432.40201"
       height="19.445436"
       width="7.5761442"
       id="rect4002"
       style="fill:#00ff00;fill-opacity:1;stroke:none"
       transform="matrix(0,1,-1,0,0,0)" />
    <rect
       style="fill:#00ff00;fill-opacity:1;stroke:none"
       id="rect4008"
       width="7.5761442"
       height="19.445436"
       x="505.28503"
       y="-381.70355"
       transform="matrix(0.25881905,0.96592583,-0.96592583,0.25881905,0,0)" />
    <rect
       y="-381.70355"
       x="525.28503"
       height="19.445436"
       width="7.5761442"
       id="rect4010"
       style="fill:#00ff00;fill-opacity:1;stroke:none"
       transform="matrix(0.25881905,0.96592583,-0.96592583,0.25881905,0,0)" />
    <rect
       style="fill:#00ff00;fill-opacity:1;stroke:none"
       id="rect4012"
       width="7.5761442"
       height="19.445436"
       x="545.28503"
       y="-381.70355"
       transform="matrix(0.25881905,0.96592583,-0.96592583,0.25881905,0,0)" />
    <rect
       y="-73.709991"
       x="621.10767"
       height="19.445436"
       width="7.5761442"
       id="rect4018"
       style="fill:#00ff00;fill-opacity:1;stroke:none"
       transform="matrix(0.70710679,0.70710678,-0.70710678,0.70710679,0,0)" />
    <rect
       style="fill:#00ff00;fill-opacity:1;stroke:none"
       id="rect4020"
       width="7.5761442"
       height="19.445436"
       x="641.10767"
       y="-73.709991"
       transform="matrix(0.70710679,0.70710678,-0.70710678,0.70710679,0,0)" />
    <rect
       y="-73.709991"
       x="661.10767"
       height="19.445436"
       width="7.5761442"
       id="rect4022"
       style="fill:#00ff00;fill-opacity:1;stroke:none"
       transform="matrix(0.70710679,0.70710678,-0.70710678,0.70710679,0,0)" />
    <rect
       style="fill:#00ff00;fill-opacity:1;stroke:none"
       id="rect4028"
       width="7.5761442"
       height="19.445436"
       x="617.08984"
       y="80.704475"
       transform="matrix(0.86602541,0.5,-0.5,0.86602541,0,0)" />
    <rect
       y="80.704475"
       x="637.08984"
       height="19.445436"
       width="7.5761442"
       id="rect4030"
       style="fill:#00ff00;fill-opacity:1;stroke:none"
       transform="matrix(0.86602541,0.5,-0.5,0.86602541,0,0)" />
    <rect
       style="fill:#00ff00;fill-opacity:1;stroke:none"
       id="rect4032"
       width="7.5761442"
       height="19.445436"
       x="657.08984"
       y="80.704475"
       transform="matrix(0.86602541,0.5,-0.5,0.86602541,0,0)" />
    <rect
       y="69.04422"
       x="617.28601"
       height="19.445436"
       width="7.5761442"
       id="rect4038"
       style="fill:#00ff00;fill-opacity:1;stroke:none"
       transform="matrix(0.86602541,0.5,-0.5,0.86602541,0,0)" />
    <rect
       style="fill:#00ff00;fill-opacity:1;stroke:none"
       id="rect4040"
       width="7.5761442"
       height="19.445436"
       x="637.28601"
       y="69.04422"
       transform="matrix(0.86602541,0.5,-0.5,0.86602541,0,0)" />
    <rect
       y="69.04422"
       x="657.28601"
       height="19.445436"
       width="7.5761442"
       id="rect4042"
       style="fill:#00ff00;fill-opacity:1;stroke:none"
       transform="matrix(0.86602541,0.5,-0.5,0.86602541,0,0)" />
    <rect
       style="fill:#00ff00;fill-opacity:1;stroke:none"
       id="rect4048"
       width="7.5761442"
       height="19.445436"
       x="617.21423"
       y="52.919865"
       transform="matrix(0.86602541,0.5,-0.5,0.86602541,0,0)" />
    <rect
       y="52.919865"
       x="637.21423"
       height="19.445436"
       width="7.5761442"
       id="rect4050"
       style="fill:#00ff00;fill-opacity:1;stroke:none"
       transform="matrix(0.86602541,0.5,-0.5,0.86602541,0,0)" />
    <rect
       style="fill:#00ff00;fill-opacity:1;stroke:none"
       id="rect4052"
       width="7.5761442"
       height="19.445436"
       x="657.21423"
       y="52.919865"
       transform="matrix(0.86602541,0.5,-0.5,0.86602541,0,0)" />
    <rect
       y="-129.26842"
       x="609.59192"
       height="19.445436"
       width="7.5761442"
       id="rect4058"
       style="fill:#00ff00;fill-opacity:1;stroke:none"
       transform="matrix(0.70710679,0.70710678,-0.70710678,0.70710679,0,0)" />
    <rect
       style="fill:#00ff00;fill-opacity:1;stroke:none"
       id="rect4060"
       width="7.5761442"
       height="19.445436"
       x="629.59192"
       y="-129.26842"
       transform="matrix(0.70710679,0.70710678,-0.70710678,0.70710679,0,0)" />
    <rect
       y="-129.26842"
       x="649.59192"
       height="19.445436"
       width="7.5761442"
       id="rect4062"
       style="fill:#00ff00;fill-opacity:1;stroke:none"
       transform="matrix(0.70710679,0.70710678,-0.70710678,0.70710679,0,0)" />
    <rect
       style="fill:#00ff00;fill-opacity:1;stroke:none"
       id="rect4068"
       width="7.5761442"
       height="19.445436"
       x="609.59192"
       y="-140.58212"
       transform="matrix(0.70710679,0.70710678,-0.70710678,0.70710679,0,0)" />
    <rect
       y="-140.58212"
       x="629.59192"
       height="19.445436"
       width="7.5761442"
       id="rect4070"
       style="fill:#00ff00;fill-opacity:1;stroke:none"
       transform="matrix(0.70710679,0.70710678,-0.70710678,0.70710679,0,0)" />
    <rect
       style="fill:#00ff00;fill-opacity:1;stroke:none"
       id="rect4072"
       width="7.5761442"
       height="19.445436"
       x="649.59192"
       y="-140.58212"
       transform="matrix(0.70710679,0.70710678,-0.70710678,0.70710679,0,0)" />
    <rect
       y="-154.72426"
       x="609.59192"
       height="19.445436"
       width="7.5761442"
       id="rect4078"
       style="fill:#00ff00;fill-opacity:1;stroke:none"
       transform="matrix(0.70710679,0.70710678,-0.70710678,0.70710679,0,0)" />
    <rect
       style="fill:#00ff00;fill-opacity:1;stroke:none"
       id="rect4080"
       width="7.5761442"
       height="19.445436"
       x="629.59192"
       y="-154.72426"
       transform="matrix(0.70710679,0.70710678,-0.70710678,0.70710679,0,0)" />
    <rect
       y="-154.72426"
       x="649.59192"
       height="19.445436"
       width="7.5761442"
       id="rect4082"
       style="fill:#00ff00;fill-opacity:1;stroke:none"
       transform="matrix(0.70710679,0.70710678,-0.70710678,0.70710679,0,0)" />
    <rect
       style="fill:#00ff00;fill-opacity:1;stroke:none"
       id="rect4088"
       width="7.5761442"
       height="19.445436"
       x="627.39117"
       y="-1.4532324"
       transform="matrix(0.86602541,0.5,-0.5,0.86602541,0,0)" />
    <rect
       y="-1.4532324"
       x="647.39117"
       height="19.445436"
       width="7.5761442"
       id="rect4090"
       style="fill:#00ff00;fill-opacity:1;stroke:none"
       transform="matrix(0.86602541,0.5,-0.5,0.86602541,0,0)" />
    <rect
       style="fill:#00ff00;fill-opacity:1;stroke:none"
       id="rect4092"
       width="7.5761442"
       height="19.445436"
       x="667.39117"
       y="-1.4532324"
       transform="matrix(0.86602541,0.5,-0.5,0.86602541,0,0)" />
    <rect
       y="152.9679"
       x="604.74408"
       height="19.445436"
       width="7.5761442"
       id="rect4098"
       style="fill:#00ff00;fill-opacity:1;stroke:none"
       transform="matrix(0.96592583,0.25881904,-0.25881904,0.96592583,0,0)" />
    <rect
       style="fill:#00ff00;fill-opacity:1;stroke:none"
       id="rect4100"
       width="7.5761442"
       height="19.445436"
       x="624.74408"
       y="152.9679"
       transform="matrix(0.96592583,0.25881904,-0.25881904,0.96592583,0,0)" />
    <rect
       y="152.9679"
       x="644.74408"
       height="19.445436"
       width="7.5761442"
       id="rect4102"
       style="fill:#00ff00;fill-opacity:1;stroke:none"
       transform="matrix(0.96592583,0.25881904,-0.25881904,0.96592583,0,0)" />
    <rect
       style="fill:#00ff00;fill-opacity:1;stroke:none"
       id="rect4108"
       width="7.5761442"
       height="19.445436"
       x="445.08234"
       y="421.53323"
       transform="matrix(0.96592583,-0.25881905,0.25881905,0.96592583,0,0)" />
    <rect
       y="421.53323"
       x="465.08234"
       height="19.445436"
       width="7.5761442"
       id="rect4110"
       style="fill:#00ff00;fill-opacity:1;stroke:none"
       transform="matrix(0.96592583,-0.25881905,0.25881905,0.96592583,0,0)" />
    <rect
       style="fill:#00ff00;fill-opacity:1;stroke:none"
       id="rect4112"
       width="7.5761442"
       height="19.445436"
       x="485.08234"
       y="421.53323"
       transform="matrix(0.96592583,-0.25881905,0.25881905,0.96592583,0,0)" />
    <rect
       y="405.04312"
       x="445.35971"
       height="19.445436"
       width="7.5761442"
       id="rect4118"
       style="fill:#00ff00;fill-opacity:1;stroke:none"
       transform="matrix(0.96592583,-0.25881905,0.25881905,0.96592583,0,0)" />
    <rect
       style="fill:#00ff00;fill-opacity:1;stroke:none"
       id="rect4120"
       width="7.5761442"
       height="19.445436"
       x="465.35971"
       y="405.04312"
       transform="matrix(0.96592583,-0.25881905,0.25881905,0.96592583,0,0)" />
    <rect
       y="405.04312"
       x="485.35971"
       height="19.445436"
       width="7.5761442"
       id="rect4122"
       style="fill:#00ff00;fill-opacity:1;stroke:none"
       transform="matrix(0.96592583,-0.25881905,0.25881905,0.96592583,0,0)" />
    <rect
       style="fill:#00ff00;fill-opacity:1;stroke:none"
       id="rect4128"
       width="7.5761442"
       height="19.445436"
       x="445.11948"
       y="390.48489"
       transform="matrix(0.96592583,-0.25881905,0.25881905,0.96592583,0,0)" />
    <rect
       y="390.48489"
       x="465.11948"
       height="19.445436"
       width="7.5761442"
       id="rect4130"
       style="fill:#00ff00;fill-opacity:1;stroke:none"
       transform="matrix(0.96592583,-0.25881905,0.25881905,0.96592583,0,0)" />
    <rect
       style="fill:#00ff00;fill-opacity:1;stroke:none"
       id="rect4132"
       width="7.5761442"
       height="19.445436"
       x="485.11948"
       y="390.48489"
       transform="matrix(0.96592583,-0.25881905,0.25881905,0.96592583,0,0)" />
    <rect
       y="375.92667"
       x="444.87924"
       height="19.445436"
       width="7.5761442"
       id="rect4138"
       style="fill:#00ff00;fill-opacity:1;stroke:none"
       transform="matrix(0.96592583,-0.25881905,0.25881905,0.96592583,0,0)" />
    <rect
       style="fill:#00ff00;fill-opacity:1;stroke:none"
       id="rect4140"
       width="7.5761442"
       height="19.445436"
       x="464.87924"
       y="375.92667"
       transform="matrix(0.96592583,-0.25881905,0.25881905,0.96592583,0,0)" />
    <rect
       y="375.92667"
       x="484.87924"
       height="19.445436"
       width="7.5761442"
       id="rect4142"
       style="fill:#00ff00;fill-opacity:1;stroke:none"
       transform="matrix(0.96592583,-0.25881905,0.25881905,0.96592583,0,0)" />
    <rect
       style="fill:#00ff00;fill-opacity:1;stroke:none"
       id="rect4148"
       width="7.5761442"
       height="19.445436"
       x="444.63901"
       y="361.36841"
       transform="matrix(0.96592583,-0.25881905,0.25881905,0.96592583,0,0)" />
    <rect
       y="361.36841"
       x="464.63901"
       height="19.445436"
       width="7.5761442"
       id="rect4150"
       style="fill:#00ff00;fill-opacity:1;stroke:none"
       transform="matrix(0.96592583,-0.25881905,0.25881905,0.96592583,0,0)" />
    <rect
       style="fill:#00ff00;fill-opacity:1;stroke:none"
       id="rect4152"
       width="7.5761442"
       height="19.445436"
       x="484.63901"
       y="361.36841"
       transform="matrix(0.96592583,-0.25881905,0.25881905,0.96592583,0,0)" />
    <rect
       y="210.89214"
       x="522.14368"
       height="19.445436"
       width="7.5761442"
       id="rect4158"
       style="fill:#00ff00;fill-opacity:1;stroke:none" />
    <rect
       style="fill:#00ff00;fill-opacity:1;stroke:none"
       id="rect4160"
       width="7.5761442"
       height="19.445436"
       x="542.14368"
       y="210.89214" />
    <rect
       y="210.89214"
       x="562.14368"
       height="19.445436"
       width="7.5761442"
       id="rect4162"
       style="fill:#00ff00;fill-opacity:1;stroke:none" />
    <rect
       style="fill:#00ff00;fill-opacity:1;stroke:none"
       id="rect4168"
       width="7.5761442"
       height="19.445436"
       x="522.14368"
       y="198.89214" />
    <rect
       y="198.89214"
       x="542.14368"
       height="19.445436"
       width="7.5761442"
       id="rect4170"
       style="fill:#00ff00;fill-opacity:1;stroke:none" />
    <rect
       style="fill:#00ff00;fill-opacity:1;stroke:none"
       id="rect4172"
       width="7.5761442"
       height="19.445436"
       x="562.14368"
       y="198.89214" />
    <rect
       y="198.89214"
       x="522.14368"
       height="19.445436"
       width="7.5761442"
       id="rect4178"
       style="fill:#00ff00;fill-opacity:1;stroke:none" />
    <rect
       style="fill:#00ff00;fill-opacity:1;stroke:none"
       id="rect4180"
       width="7.5761442"
       height="19.445436"
       x="542.14368"
       y="198.89214" />
    <rect
       y="198.89214"
       x="562.14368"
       height="19.445436"
       width="7.5761442"
       id="rect4182"
       style="fill:#00ff00;fill-opacity:1;stroke:none" />
  </g>
</svg>
